<?xml version="1.0" encoding="UTF-8"?>
<svg id="Capa_2" data-name="Capa 2" xmlns="http://www.w3.org/2000/svg" viewBox="0 0 63.48 63.5">
  <defs>
    <style>
      .cls-1 {
        fill: #f6f6f6;
      }
    </style>
  </defs>
  <g id="Capa_1-2" data-name="Capa 1">
    <g>
      <path class="cls-1" d="M63.48,57.34c0,3.35-2.81,6.13-6.09,6.13l-51,.03C3.06,63.51,0,60.95,0,57.48V5.97C0,2.8,2.8,0,5.97,0h51.52c3.17,0,5.97,2.8,5.97,5.97v51.37ZM33.16,34.63c-.73-2.11-2.44-3.48-4.59-4.09,1.79-.82,3.09-2.46,3.49-4.21.89-3.86-1.75-7.45-5.86-7.94-1.38-.16-2.67-.19-4.08-.19h-10.67s0,26.34,0,26.34h7.14c2.79,0,5.47.02,8.23-.19,2.63-.2,4.79-1.66,5.9-4.02.84-1.78,1.11-3.76.44-5.7ZM48.45,19.97h-10.45s0,3.49,0,3.49h10.45s0-3.49,0-3.49ZM51.85,39.27l-5.05-.85c-.27.94-.68,1.87-1.57,2.33-1.91.99-4.25.12-5.17-1.8-.37-.78-.54-1.55-.55-2.49h12.62c.04-1.89-.12-3.75-.68-5.57-.99-3.26-3.71-5.51-7.11-5.81-4.63-.62-8.57,2.1-9.65,6.59-1.27,5.3.25,11.67,6.11,12.99,1.72.39,3.44.41,5.16.05,2.91-.6,4.99-2.64,5.88-5.44Z"/>
      <g>
        <path class="cls-1" d="M47.09,33.32h-7.48c-.11-2.45,1.43-4.49,3.86-4.43,1.5.04,2.82,1.02,3.31,2.51.18.59.31,1.13.32,1.92Z"/>
        <g>
          <path class="cls-1" d="M28.02,36.69c-.01,1.5-.82,2.68-2.23,3.1-.69.2-1.4.22-2.14.25l-6.85.03v-7s6.17.02,6.17.02c.84.09,1.65.07,2.44.26,1.63.32,2.63,1.65,2.61,3.35Z"/>
          <path class="cls-1" d="M27.02,25.13c.2,1.58-.65,2.9-2.16,3.29-.71.18-1.44.23-2.2.21l-5.85.02v-6.04s6.17.02,6.17.02c.72.01,1.43,0,2.1.21,1.12.27,1.8,1.14,1.95,2.3Z"/>
        </g>
      </g>
    </g>
  </g>
</svg>